#!OML:ASF H:\ManfredETheater\Project 1\Capture day 1\Session 1\subject.ASF
:FULLY-SPECIFIED
:DEGREES
106
root 0.578017 17.0951 32.4517 -174.232 -4.94014 178.102
lowerback 5.50287 -0.84021 -4.21505
upperback -2.72655 -1.39518 1.70154
thorax -5.79614 -0.502501 4.29577
lowerneck -19.0445 -0.108027 -1.77037
upperneck 25.3135 -0.0476341 -1.20815
head 11.3988 -0.663094 -0.215339
rclavicle 8.24956e-015 -1.31198e-014
rhumerus -35.6627 -11.3683 -77.3575
rradius 30.8286
rwrist 1.84176
rhand -20.1279 -12.5842
rfingers 7.12502
rthumb 6.21634 -42.473
lclavicle 8.24956e-015 -1.31198e-014
lhumerus -36.2461 4.58991 84.5877
lradius 33.1654
lwrist -13.8237
lhand -8.79292 9.47773
lfingers 7.12502
lthumb 17.1458 38.7412
rfemur -32.6922 -3.61751 15.527
rtibia 38.2253
rfoot -7.60025 -4.29592
rtoes 12.4773
lfemur -10.9599 -4.50797 -25.8212
ltibia 32.4551
lfoot -23.8924 0.126657
ltoes 9.03996
107
root 0.579333 17.0915 32.4382 -174.168 -4.91119 178.051
lowerback 5.5621 -0.844118 -4.25579
upperback -2.7155 -1.40568 1.6879
thorax -5.81686 -0.505569 4.30693
lowerneck -19.0144 -0.10744 -1.76837
upperneck 25.2427 -0.0422415 -1.21192
head 11.366 -0.657827 -0.215148
rclavicle 1.36664e-015 -8.74653e-015
rhumerus -35.6721 -11.3631 -77.3753
rradius 30.8386
rwrist 1.83631
rhand -20.108 -12.5715
rfingers 7.12502
rthumb 6.23558 -42.4597
lclavicle 1.36664e-015 -8.74653e-015
lhumerus -36.2483 4.56317 84.6001
lradius 33.1969
lwrist -13.7889
lhand -8.78405 9.49722
lfingers 7.12502
lthumb 17.1543 38.76
rfemur -32.8143 -3.68812 15.4998
rtibia 38.4011
rfoot -7.70266 -4.21196
rtoes 12.4933
lfemur -10.9802 -4.46651 -25.8657
ltibia 32.4622
lfoot -23.9495 0.108752
ltoes 9.04909
108
root 0.580864 17.0879 32.4241 -174.099 -4.89181 178
lowerback 5.62205 -0.851076 -4.29492
upperback -2.70446 -1.42023 1.67436
thorax -5.83759 -0.510698 4.31773
lowerneck -18.9812 -0.107384 -1.76732
upperneck 25.1701 -0.0377465 -1.21464
head 11.3319 -0.652899 -0.214534
rclavicle -1.99033e-014 2.18663e-014
rhumerus -35.6824 -11.3562 -77.3948
rradius 30.8488
rwrist 1.82892
rhand -20.09 -12.5572
rfingers 7.12502
rthumb 6.25293 -42.4449
lclavicle -1.99033e-014 2.18663e-014
lhumerus -36.2507 4.53416 84.6137
lradius 33.2297
lwrist -13.7524
lhand -8.78344 9.51438
lfingers 7.12502
lthumb 17.1549 38.7771
rfemur -32.9375 -3.7619 15.4723
rtibia 38.5801
rfoot -7.81024 -4.13397
rtoes 12.5078
lfemur -11.001 -4.43138 -25.9088
ltibia 32.4677
lfoot -24.0081 0.0871025
ltoes 9.06339
109
root 0.582521 17.0842 32.4093 -174.027 -4.8773 177.947
lowerback 5.68486 -0.859775 -4.33322
upperback -2.69457 -1.43721 1.66189
thorax -5.86089 -0.516959 4.32957
lowerneck -18.9441 -0.107946 -1.7684
upperneck 25.0956 -0.0337843 -1.21703
head 11.2964 -0.648376 -0.213501
rclavicle -3.23025e-015 1.90833e-014
rhumerus -35.6953 -11.3456 -77.4145
rradius 30.8611
rwrist 1.81976
rhand -20.0732 -12.5404
rfingers 7.12502
rthumb 6.26911 -42.4276
lclavicle -3.23025e-015 1.90833e-014
lhumerus -36.2519 4.50753 84.6288
lradius 33.261
lwrist -13.7142
lhand -8.79199 9.52758
lfingers 7.12502
lthumb 17.1467 38.791
rfemur -33.0628 -3.83742 15.4442
rtibia 38.761
rfoot -7.92103 -4.05837
rtoes 12.5198
lfemur -11.0234 -4.40049 -25.9519
ltibia 32.4725
lfoot -24.069 0.066382
ltoes 9.07656
110
root 0.584268 17.0806 32.3938 -173.951 -4.86968 177.895
lowerback 5.75034 -0.86994 -4.36752
upperback -2.68422 -1.45598 1.64955
thorax -5.88511 -0.52423 4.33955
lowerneck -18.9078 -0.109803 -1.7706
upperneck 25.0199 -0.0312985 -1.21886
head 11.2607 -0.644469 -0.212287
rclavicle 6.65929e-015 1.47101e-014
rhumerus -35.7087 -11.3319 -77.4357
rradius 30.8756
rwrist 1.80676
rhand -20.0584 -12.5211
rfingers 7.12502
rthumb 6.28342 -42.4079
lclavicle 6.65929e-015 1.47101e-014
lhumerus -36.2535 4.47946 84.6462
lradius 33.2941
lwrist -13.6751
lhand -8.80223 9.53804
lfingers 7.12502
lthumb 17.1368 38.8023
rfemur -33.188 -3.91487 15.4161
rtibia 38.9431
rfoot -8.03727 -3.98742
rtoes 12.529
lfemur -11.0463 -4.37844 -25.9941
ltibia 32.4772
lfoot -24.1321 0.0494731
ltoes 9.08585
111
root 0.586137 17.077 32.3776 -173.871 -4.86228 177.848
lowerback 5.80844 -0.878087 -4.39198
upperback -2.66479 -1.47072 1.63662
thorax -5.89609 -0.530398 4.34252
lowerneck -18.89 -0.115283 -1.76971
upperneck 24.9413 -0.0325463 -1.22179
head 11.2276 -0.641461 -0.2125
rclavicle 2.21148e-015 1.63003e-014
rhumerus -35.7073 -11.3269 -77.4612
rradius 30.8903
rwrist 1.79412
rhand -20.0487 -12.5017
rfingers 7.12502
rthumb 6.29279 -42.3882
lclavicle 2.21148e-015 1.63003e-014
lhumerus -36.2339 4.44447 84.6672
lradius 33.3242
lwrist -13.633
lhand -8.81503 9.54892
lfingers 7.12502
lthumb 17.1245 38.8143
rfemur -33.3164 -3.98575 15.3934
rtibia 39.1254
rfoot -8.15651 -3.9223
rtoes 12.5266
lfemur -11.0733 -4.36218 -26.0307
ltibia 32.4831
lfoot -24.1979 0.0417628
ltoes 9.082
112
root 0.588074 17.0733 32.3608 -173.787 -4.85224 177.804
lowerback 5.86613 -0.884494 -4.40971
upperback -2.64147 -1.48246 1.62377
thorax -5.90316 -0.535517 4.34138
lowerneck -18.8802 -0.121831 -1.76816
upperneck 24.861 -0.0347927 -1.22404
head 11.1955 -0.63847 -0.212697
rclavicle -1.00386e-014 -1.39149e-014
rhumerus -35.6997 -11.3228 -77.4895
rradius 30.9069
rwrist 1.78068
rhand -20.041 -12.4814
rfingers 7.12502
rthumb 6.30025 -42.3677
lclavicle -1.00386e-014 -1.39149e-014
lhumerus -36.2063 4.40822 84.6897
lradius 33.3551
lwrist -13.5901
lhand -8.83168 9.5548
lfingers 7.12502
lthumb 17.1085 38.8215
rfemur -33.4471 -4.05112 15.3738
rtibia 39.3077
rfoot -8.27932 -3.85975
rtoes 12.5189
lfemur -11.1031 -4.35179 -26.0651
ltibia 32.4911
lfoot -24.2666 0.0452744
ltoes 9.07436
113
root 0.590072 17.0696 32.3433 -173.697 -4.84114 177.767
lowerback 5.91963 -0.891401 -4.41841
upperback -2.61778 -1.49387 1.61419
thorax -5.90755 -0.540885 4.33841
lowerneck -18.8602 -0.127954 -1.76734
upperneck 24.773 -0.0361095 -1.22753
head 11.1585 -0.635133 -0.212983
rclavicle 1.21756e-015 5.1684e-015
rhumerus -35.6945 -11.3086 -77.5199
rradius 30.9294
rwrist 1.76377
rhand -20.0366 -12.4668
rfingers 7.12502
rthumb 6.30452 -42.353
lclavicle 1.21756e-015 5.1684e-015
lhumerus -36.1785 4.37722 84.7137
lradius 33.3859
lwrist -13.5469
lhand -8.8495 9.55903
lfingers 7.12502
lthumb 17.0913 38.8272
rfemur -33.5812 -4.11035 15.3619
rtibia 39.4895
rfoot -8.40517 -3.80222
rtoes 12.5042
lfemur -11.1383 -4.3479 -26.0923
ltibia 32.5025
lfoot -24.339 0.0616092
ltoes 9.04596
